<svg xmlns="http://www.w3.org/2000/svg" width="19.094" height="20" viewBox="0 0 19.094 20">
  <metadata><?xpacket begin="﻿" id="W5M0MpCehiHzreSzNTczkc9d"?>
<x:xmpmeta xmlns:x="adobe:ns:meta/" x:xmptk="Adobe XMP Core 5.6-c138 79.159824, 2016/09/14-01:09:01        ">
   <rdf:RDF xmlns:rdf="http://www.w3.org/1999/02/22-rdf-syntax-ns#">
      <rdf:Description rdf:about=""/>
   </rdf:RDF>
</x:xmpmeta>
                                                                                                    
                                                                                                    
                                                                                                    
                                                                                                    
                                                                                                    
                                                                                                    
                                                                                                    
                                                                                                    
                                                                                                    
                                                                                                    
                                                                                                    
                                                                                                    
                                                                                                    
                                                                                                    
                                                                                                    
                                                                                                    
                                                                                                    
                                                                                                    
                                                                                                    
                                                                                                    
                           
<?xpacket end="w"?></metadata>
<defs>
    <style>
      .cls-1 {
        fill-rule: evenodd;
      }
    </style>
  </defs>
  <path id="Forme_674" data-name="Forme 674" class="cls-1" d="M696.95,242.75v9.574A1.7,1.7,0,0,0,698.681,254h15.587A1.7,1.7,0,0,0,716,252.324V242.75H696.95Zm6.175,10h-4.762v-3.8h4.762v3.8Zm0-4.88h-4.762V244.06h4.762v3.805Zm5.7,4.88h-4.761v-3.8h4.761v3.8h0Zm0-4.88h-4.761V244.06h4.761v3.805h0Zm5.7,4.88H709.77v-3.8h4.762v3.8Zm0-4.88H709.77V244.06h4.762v3.805Zm1.411-6.23v-3.688a1.7,1.7,0,0,0-1.731-1.675h-2.651l0-1.425a0.891,0.891,0,0,0-1.781,0l0,1.421v0l-7.08,0,0-1.425a0.891,0.891,0,0,0-1.781,0l0.006,1.424-2.294,0a1.7,1.7,0,0,0-1.731,1.675v3.9h19.047v-0.207h0Zm-14.125-1.388a1.745,1.745,0,0,1-1.784-1.7,1.691,1.691,0,0,1,.888-1.474l0,1.473a0.891,0.891,0,0,0,1.781,0l0-1.473a1.688,1.688,0,0,1,.893,1.47A1.741,1.741,0,0,1,701.818,240.247Zm8.861,0a1.744,1.744,0,0,1-1.784-1.7,1.689,1.689,0,0,1,.888-1.474l0,1.473a0.891,0.891,0,0,0,1.78,0l0-1.473a1.687,1.687,0,0,1,.894,1.47A1.745,1.745,0,0,1,710.679,240.247Z" transform="translate(-696.906 -234)"/>
</svg>
