
<svg width="28px" height="29px" viewBox="0 0 28 29" version="1.1" xmlns="http://www.w3.org/2000/svg" xmlns:xlink="http://www.w3.org/1999/xlink">
    <!-- Generator: Sketch 42 (36781) - http://www.bohemiancoding.com/sketch -->
    <desc>Created with Sketch.</desc>
    <defs></defs>
    <path d="M7.73265247,24.3441775 C7.9846197,24.5727433 8.18095412,24.8617693 8.29858445,25.1886625 L8.69,25.184 L23.434,25.184 C23.7523516,24.3804675 24.497002,23.825463 25.358,23.75 C26.5316051,23.75 27.483,24.7013949 27.483,25.875 C27.483,27.0486051 26.5316051,28 25.358,28 C24.5486423,28.0548276 23.7870187,27.6128881 23.433,26.883 L8.689,26.883 L8.18245358,26.8751455 C7.83479803,27.5370163 7.14398032,27.9916192 6.344,28 C5.17648371,27.9869057 4.2353877,27.0395773 4.23,25.872 C4.22597516,25.3215947 4.44270644,24.792536 4.8317242,24.4031424 C5.14375323,24.0908119 5.54574353,23.8892361 5.97666324,23.8234857 L9.126,20.283 L4.678,3.06 L0.787,1.942 C0.282633713,1.75036537 -0.0347344738,1.2488503 0.008,0.711 C0.189249073,0.21188645 0.712661161,-0.0752840412 1.231,0.04 L5.568,1.494 C5.86349284,1.65604802 6.06839684,1.94460887 6.124,2.277 L7,5.603 L27.3,5.603 C27.5672874,5.6581279 27.7939991,5.83388489 27.914,6.079 C28.0204292,6.32915022 28.0204292,6.61184978 27.914,6.862 L25.135,19.613 C25.0869322,19.9921082 24.7807352,20.2862239 24.4,20.319 L11.111,20.319 L7.73265247,24.3441775 Z M25.36,24.981 C25.7254433,24.9769472 26.0570524,25.1942881 26.1991577,25.5309947 C26.3412629,25.8677012 26.265645,26.2569102 26.0078018,26.5159123 C25.7499585,26.7749143 25.3610926,26.8522768 25.0237522,26.7116829 C24.6864118,26.571089 24.467586,26.2404578 24.47,25.875 C24.4651289,25.6370222 24.5567599,25.4071999 24.7240316,25.237856 C24.8913034,25.0685122 25.1199803,24.9740589 25.358,24.976 L25.36,24.981 Z M16.547,18.495 L13.46,18.495 L13.041,15.455 L16.541,15.455 L16.541,18.496 L16.547,18.495 Z M16.547,14.724 L13.047,14.724 L12.563,11.198 L16.551,11.198 L16.551,14.724 L16.547,14.724 Z M23.692,18.494 L21.135,18.494 L21.502,15.454 L24.524,15.454 L23.692,18.494 Z M22.349,7.549 L26.337,7.549 L25.611,10.589 L21.986,10.589 L22.349,7.549 Z M25.37,11.198 L24.645,14.724 L21.745,14.724 L21.866,11.198 L25.366,11.198 L25.37,11.198 Z M17.27,7.549 L21.62,7.549 L21.379,10.589 L17.27,10.589 L17.27,7.549 Z M17.27,11.198 L21.258,11.198 L20.895,14.724 L17.27,14.724 L17.27,11.198 Z M17.27,15.454 L20.653,15.454 L20.412,18.495 L17.27,18.495 L17.27,15.454 Z M16.544,7.549 L16.544,10.589 L12.556,10.589 L12.315,7.549 L16.544,7.549 Z M7.481,7.549 L11.71,7.549 L11.952,10.589 L8.206,10.589 L7.481,7.549 Z M8.327,11.198 L11.952,11.198 L12.315,14.724 L9.293,14.724 L8.327,11.198 Z M12.315,15.454 L12.792,18.494 L10.235,18.494 L9.535,15.454 L12.315,15.454 L12.315,15.454 Z M6.343,24.981 C5.99974074,24.9428763 5.66494096,25.1045446 5.48134806,25.3970749 C5.29775516,25.6896052 5.29775516,26.0613948 5.48134806,26.3539251 C5.66494096,26.6464554 5.99974074,26.8081237 6.343,26.77 C6.83839936,26.7702761 7.2402237,26.3688994 7.24049985,25.8735 C7.24077599,25.3781006 6.83939936,24.9762762 6.344,24.976 L6.343,24.981 Z" id="Forme_29_copie_2" stroke="#333" stroke-width="0.3px" fill="#333333" fill-rule="evenodd"></path>
</svg>
