<svg xmlns="http://www.w3.org/2000/svg" width="10.56" height="10.562" viewBox="0 0 10.56 10.562">
  <defs>
    <style>
      .cls-1 {
        fill-rule: evenodd;
        fill: #333;
      }
    </style>
  </defs>
  <path id="Forme_585" data-name="Forme 585" class="cls-1" d="M1396.25,245.176a1.213,1.213,0,0,0-.86.357,1.228,1.228,0,0,0,0,1.737l3.18,3.179-3.18,3.179a1.226,1.226,0,0,0,1.73,1.737l3.18-3.179,3.18,3.179a1.229,1.229,0,0,0,1.74-1.737l-3.18-3.179,3.18-3.179a1.229,1.229,0,0,0-1.74-1.737l-3.18,3.18-3.18-3.18A1.219,1.219,0,0,0,1396.25,245.176Z" transform="translate(-1395.03 -245.188)"/>
</svg>
