<svg xmlns="http://www.w3.org/2000/svg" width="37" height="28" viewBox="0 0 37 28">
  <defs>
    <style>
      .cls-1 {
        fill: #333;
        fill-rule: evenodd;
      }
    </style>
  </defs>
  <path id="Forme_36" data-name="Forme 36" class="cls-1" d="M257.29,478.367v-2.374h-3.58v2.014L237,487.662l1.194,1.166V504h3.335l-0.948-.927V490h29.838v12.484L268.868,504h3.938V488.828L274,487.662Zm3.594,4.615L257.29,486.5v-5.716ZM253.71,486.5l-3.757-3.673,3.757-2.407v6.08ZM246.548,485v2.681l-1.193-.023v1.166h-4.774Zm2.387,3.824v-1.094l-1.193-.024v-3.47l0.769-.494,4.273,4.178a1.9,1.9,0,0,0-.268.9h-3.581Zm9.549,0a1.9,1.9,0,0,0-.268-0.9l3.848-3.763v3.5h-1.193v1.166h-2.387Zm5.968,0v-1.166h-1.194v-3.224l7.161,4.39h-5.967ZM248.935,497h4.775v-4.667h-4.775V497Zm-1.193,7h5.968v-5.834h-5.968V504Zm7.161,0h8.355v-8.168H254.9V504Z" transform="translate(-237 -476)"/>
</svg>
